<?xml version="1.0" encoding="utf-8"?>
<!-- Generator: Adobe Illustrator 21.0.0, SVG Export Plug-In . SVG Version: 6.00 Build 0)  -->
<svg version="1.1" id="Layer_1" xmlns="http://www.w3.org/2000/svg" xmlns:xlink="http://www.w3.org/1999/xlink" x="0px" y="0px"
	 viewBox="0 0 108.2 35" style="enable-background:new 0 0 108.2 35;" xml:space="preserve">
<style type="text/css">
	.st0{fill:none;stroke:#FF0202;stroke-width:0.6903;stroke-linecap:round;stroke-linejoin:round;stroke-miterlimit:10;}
	.st1{fill:none;stroke:#FF0202;stroke-width:0.827;stroke-linecap:round;stroke-linejoin:round;stroke-miterlimit:10;}
	.st2{fill:none;stroke:#FF0202;stroke-width:0.7765;stroke-linecap:round;stroke-linejoin:round;stroke-miterlimit:10;}
	.st3{fill:none;stroke:#FF0202;stroke-width:1.6203;stroke-linecap:round;stroke-linejoin:round;stroke-miterlimit:10;}
	.st4{fill:none;stroke:#FF0202;stroke-width:1.9412;stroke-linecap:round;stroke-linejoin:round;stroke-miterlimit:10;}
	.st5{fill:none;stroke:#FF0202;stroke-width:1.8228;stroke-linecap:round;stroke-linejoin:round;stroke-miterlimit:10;}
</style>
<polyline class="st0" points="-84.3,-255.8 -84.3,-261 -80.8,-261 -80.8,-256 -78.7,-256 -78.7,-261 -75.2,-261 -75.2,-255.8 "/>
<polyline class="st0" points="-73.4,-261 -69.7,-261 -73.2,-257.5 -73.2,-256.1 -63.1,-256.1 -63.1,-261 -59.6,-261 -59.6,-255.8 
	"/>
<polyline class="st0" points="-64.4,-261 -68.1,-261 -68.1,-256.1 "/>
<line class="st0" x1="-78.7" y1="-257.5" x2="-73.2" y2="-257.5"/>
<line class="st0" x1="-55.4" y1="-257.5" x2="-63.1" y2="-257.5"/>
<line class="st0" x1="-95.1" y1="-264.2" x2="-90.8" y2="-259.9"/>
<line class="st0" x1="-95.4" y1="-262.5" x2="-91.8" y2="-259"/>
<line class="st0" x1="-94.3" y1="-259.7" x2="-92.7" y2="-258.1"/>
<line class="st0" x1="-88.4" y1="-257.5" x2="-84.1" y2="-253.3"/>
<line class="st0" x1="-89.3" y1="-256.6" x2="-85.7" y2="-253.1"/>
<line class="st0" x1="-90.2" y1="-255.7" x2="-88.6" y2="-254"/>
<polyline class="st0" points="-94.4,-258 -93.4,-257 -95.7,-254.6 "/>
<line class="st0" x1="-95.5" y1="-257" x2="-93.4" y2="-257"/>
<polyline class="st0" points="-93.9,-252.8 -91.5,-255 -90.6,-254.2 "/>
<line class="st0" x1="-91.5" y1="-252.8" x2="-91.5" y2="-255"/>
<line class="st0" x1="-97.2" y1="-251.2" x2="-92.2" y2="-256.2"/>
<line class="st0" x1="-84.6" y1="-263.8" x2="-87.8" y2="-260.7"/>
<rect x="-91.9" y="-258.5" transform="matrix(0.7071 -0.7071 0.7071 0.7071 155.7446 -139.5687)" class="st1" width="2.6" height="1.4"/>
<circle class="st2" cx="-88.3" cy="-260.1" r="0.6"/>
<polyline class="st3" points="36.8,21.9 36.8,10 45,10 45,21.8 49.9,21.8 49.9,10 58.1,10 58.1,21.9 "/>
<polyline class="st3" points="62.3,10 71.1,10 62.9,18.2 62.9,21.5 86.5,21.5 86.5,10 94.8,10 94.8,21.9 "/>
<polyline class="st3" points="83.6,10 74.9,10 74.9,21.3 "/>
<line class="st3" x1="49.9" y1="18.2" x2="62.9" y2="18.2"/>
<line class="st3" x1="104.6" y1="18.2" x2="86.5" y2="18.2"/>
<line class="st3" x1="11.4" y1="2.5" x2="21.5" y2="12.4"/>
<line class="st3" x1="10.8" y1="6.3" x2="19.3" y2="14.7"/>
<line class="st3" x1="13.2" y1="13" x2="17.1" y2="16.8"/>
<line class="st3" x1="27.2" y1="18.1" x2="37.3" y2="28"/>
<line class="st3" x1="25" y1="20.2" x2="33.4" y2="28.5"/>
<line class="st3" x1="22.9" y1="22.4" x2="26.7" y2="26.3"/>
<polyline class="st3" points="13.1,17 15.5,19.4 10,24.9 "/>
<line class="st3" x1="10.4" y1="19.4" x2="15.5" y2="19.4"/>
<polyline class="st3" points="14.2,29.3 19.9,23.9 22,26 "/>
<line class="st3" x1="19.9" y1="29.3" x2="19.9" y2="23.9"/>
<line class="st3" x1="6.4" y1="33" x2="18.2" y2="21.2"/>
<line class="st3" x1="36" y1="3.4" x2="28.7" y2="10.7"/>
<rect x="19" y="15.8" transform="matrix(0.7071 -0.7071 0.7071 0.7071 -5.9161 20.6782)" class="st4" width="6.1" height="3.3"/>
<circle class="st5" cx="27.4" cy="12" r="1.5"/>
</svg>
